<?xml version="1.0" encoding="UTF-8" standalone="no"?>
<!-- Created with Inkscape (http://www.inkscape.org/) -->

<svg
   xmlns:dc="http://purl.org/dc/elements/1.1/"
   xmlns:cc="http://creativecommons.org/ns#"
   xmlns:rdf="http://www.w3.org/1999/02/22-rdf-syntax-ns#"
   xmlns:svg="http://www.w3.org/2000/svg"
   xmlns="http://www.w3.org/2000/svg"
   xmlns:sodipodi="http://sodipodi.sourceforge.net/DTD/sodipodi-0.dtd"
   xmlns:inkscape="http://www.inkscape.org/namespaces/inkscape"
   version="1.1"
   id="svg2"
   xml:space="preserve"
   width="297mm"
   height="420mm"
   viewBox="0 0 1122.5197 1587.4016"
   sodipodi:docname="InstaPink.svg"
   inkscape:version="0.92.3 (2405546, 2018-03-11)"><metadata
     id="metadata8"><rdf:RDF><cc:Work
         rdf:about=""><dc:format>image/svg+xml</dc:format><dc:type
           rdf:resource="http://purl.org/dc/dcmitype/StillImage" /><dc:title></dc:title></cc:Work></rdf:RDF></metadata><defs
     id="defs6" /><sodipodi:namedview
     pagecolor="#ffffff"
     bordercolor="#666666"
     borderopacity="1"
     objecttolerance="10"
     gridtolerance="10"
     guidetolerance="10"
     inkscape:pageopacity="0"
     inkscape:pageshadow="2"
     inkscape:window-width="1920"
     inkscape:window-height="1051"
     id="namedview4"
     showgrid="false"
     inkscape:zoom="0.45254834"
     inkscape:cx="66.946034"
     inkscape:cy="764.57144"
     inkscape:window-x="0"
     inkscape:window-y="0"
     inkscape:window-maximized="1"
     inkscape:current-layer="g10"
     units="mm" /><g
     id="g10"
     inkscape:groupmode="layer"
     inkscape:label="ink_ext_XXXXXX"
     transform="matrix(1.3333333,0,0,-1.3333333,0,1587.4016)"><g
       id="g836"><path
         d="m 778.71255,595.2697 c 0,-197.59145 -160.18209,-357.76172 -357.77357,-357.76172 -197.57963,0 -357.761741,160.17027 -357.761741,357.76172 0,197.59153 160.182111,357.77357 357.761741,357.77357 197.59148,0 357.77357,-160.18204 357.77357,-357.77357"
         style="fill:#202958;fill-opacity:1;fill-rule:nonzero;stroke:none;stroke-width:1.18346584"
         id="path18-8"
         inkscape:connector-curvature="0" /><g
         id="g829"><path
           inkscape:connector-curvature="0"
           id="path14"
           style="fill:#b84e64;fill-opacity:1;fill-rule:nonzero;stroke:none;stroke-width:0.1"
           d="m 420.94539,847.19612 c -68.418,0 -76.997,-0.29 -103.867,-1.516 -26.814,-1.223 -45.127,-5.482 -61.1513,-11.709 -16.566,-6.438 -30.6148,-15.052 -44.6203,-29.057 -14.0051,-14.005 -22.6191,-28.055 -29.057,-44.621 -6.22735,-16.024 -10.48595,-34.337 -11.70977,-61.151 -1.22579,-26.87 -1.51563,-35.449 -1.51563,-103.867 0,-68.417 0.28984,-76.996 1.51563,-103.866 1.22382,-26.814 5.48242,-45.127 11.70977,-61.1509 6.4379,-16.566 15.0519,-30.6152 29.057,-44.6211 14.0055,-14.005 28.0543,-22.6191 44.6203,-29.057 16.0243,-6.22695 34.3373,-10.48594 61.1513,-11.70898 26.87,-1.22579 35.449,-1.51602 103.867,-1.51602 68.417,0 76.996,0.29023 103.866,1.51602 26.814,1.22304 45.127,5.48203 61.151,11.70898 16.566,6.4379 30.615,15.052 44.621,29.057 14.005,14.0059 22.619,28.0551 29.057,44.6211 6.227,16.0239 10.486,34.3369 11.709,61.1509 1.226,26.87 1.516,35.449 1.516,103.866 0,68.418 -0.29,76.997 -1.516,103.867 -1.223,26.814 -5.482,45.127 -11.709,61.151 -6.438,16.566 -15.052,30.616 -29.057,44.621 -14.006,14.005 -28.055,22.619 -44.621,29.057 -16.024,6.227 -34.337,10.486 -61.151,11.709 -26.87,1.226 -35.449,1.516 -103.866,1.516 z m 0,-45.391 c 67.265,0 75.233,-0.257 101.797,-1.469 24.562,-1.12 37.901,-5.224 46.778,-8.674 11.759,-4.57 20.151,-10.029 28.966,-18.844 8.816,-8.816 14.275,-17.208 18.845,-28.967 3.45,-8.877 7.554,-22.216 8.674,-46.778 1.212,-26.564 1.469,-34.532 1.469,-101.798 0,-67.265 -0.257,-75.233 -1.469,-101.797 -1.12,-24.562 -5.224,-37.901 -8.674,-46.778 -4.57,-11.7591 -10.029,-20.1509 -18.845,-28.9661 -8.815,-8.816 -17.207,-14.275 -28.966,-18.8449 -8.877,-3.45 -22.216,-7.5539 -46.778,-8.6738 -26.56,-1.2122 -34.527,-1.4692 -101.797,-1.4692 -67.271,0 -75.237,0.257 -101.798,1.4692 -24.562,1.1199 -37.901,5.2238 -46.778,8.6738 -11.7591,4.5699 -20.1509,10.0289 -28.9661,18.8449 -8.8152,8.8152 -14.275,17.207 -18.8449,28.9661 -3.45,8.877 -7.5535,22.216 -8.6742,46.778 -1.2121,26.564 -1.4688,34.532 -1.4688,101.797 0,67.266 0.2567,75.234 1.4688,101.798 1.1207,24.562 5.2242,37.901 8.6742,46.778 4.5699,11.759 10.0293,20.151 18.8445,28.966 8.8156,8.816 17.2074,14.275 28.9665,18.845 8.877,3.45 22.216,7.554 46.778,8.674 26.564,1.212 34.532,1.469 101.798,1.469" /><path
           inkscape:connector-curvature="0"
           id="path16"
           style="fill:#b84e64;fill-opacity:1;fill-rule:nonzero;stroke:none;stroke-width:0.1"
           d="m 420.94539,511.30212 c -46.378,0 -83.974,37.596 -83.974,83.973 0,46.378 37.596,83.974 83.974,83.974 46.377,0 83.973,-37.596 83.973,-83.974 0,-46.377 -37.596,-83.973 -83.973,-83.973 z m 0,213.338 c -71.447,0 -129.365,-57.918 -129.365,-129.365 0,-71.446 57.918,-129.364 129.365,-129.364 71.446,0 129.364,57.918 129.364,129.364 0,71.447 -57.918,129.365 -129.364,129.365" /><path
           inkscape:connector-curvature="0"
           id="path18"
           style="fill:#b84e64;fill-opacity:1;fill-rule:nonzero;stroke:none;stroke-width:0.1"
           d="m 585.65139,729.75112 c 0,-16.696 -13.535,-30.23 -30.231,-30.23 -16.695,0 -30.23,13.534 -30.23,30.23 0,16.696 13.535,30.231 30.23,30.231 16.696,0 30.231,-13.535 30.231,-30.231" /></g></g></g></svg>